<svg xmlns="http://www.w3.org/2000/svg" style="display: none;"><symbol id="cashew" viewBox="0 0 64 64"><title>cashew</title><path d="m34.981 12.45c-.195-5.044-2.964-10.653-3.087-10.898l-.276-.552h-.618c-2.206 0-4 1.794-4 4v.192l.071.179c.007.018.289.729.635 1.752-1.02 1.213-3.427 3.073-5.321 4.4-.916-1.64-3.004-4.523-6.385-4.523-4.323 0-7 4.153-7 8 0 2.047.969 8.853 1.01 9.142l.106.742.742.106c.191.027 3.233.46 5.864.75-.883 2.982-1.722 7.218-1.722 11.26 0 4.486 3.075 8 7 8 .46 0 2.429-.052 3.823-.713.175.327.379.636.602.93-.756.888-1.425 2.034-1.425 3.783 0 1.378.364 2.41.817 3.164-2.034.549-2.817 2.469-2.817 3.836 0 4.187 3.215 7 8 7 5.514 0 10-4.486 10-10 0-2.998-1.301-6.003-3.324-7.92.183-.253.352-.516.5-.793 1.395.661 3.364.713 3.824.713 3.925 0 7-3.514 7-8 0-11.602-6.372-22.278-14.019-24.55zm-4.575-9.36c.68 1.508 2.291 5.409 2.553 8.961-.318-.031-.638-.051-.959-.051-.351 0-.702.025-1.053.062-.274-2.776-1.596-6.343-1.94-7.233.07-.82.638-1.502 1.399-1.739zm-2.032 6.215c.29 1.07.534 2.197.605 3.16-1.148.348-2.288.891-3.412 1.631-.557-.499-1.13-.902-1.638-1.215 1.264-.9 3.105-2.279 4.445-3.576zm-13.352 9.27c-1.32-.377-2.73-.511-3.779-.553-.137-1.243-.239-2.367-.242-2.991 2.426.116 4.417.659 5.948 1.622zm-1.667 1.663-1.638 1.634c-.074-.554-.155-1.182-.237-1.835.572.031 1.218.089 1.875.201zm2.174.647c.007.004.016.006.023.01l.033-.066.976-.976c.192.856.362 2.105.417 3.905-1.301-.144-2.727-.326-3.847-.475zm3.456 3.065c-.059-2.472-.328-4.388-.806-5.716l1.771-1.771c1.314 1.727 1.996 4.154 2.04 7.224-.686.209-1.376.313-1.99.313-.256 0-.607-.019-1.015-.05zm4.973-1.209c-.178-3.205-1.044-5.786-2.587-7.697l.839-.839c1.186.611 3.79 2.243 3.79 4.795 0 1.681-.871 2.917-2.042 3.741zm-3.528-10.592c-1.814-1.479-3.811-2.457-5.912-2.889.45-.161.94-.26 1.482-.26 2.14 0 3.641 1.855 4.43 3.149zm-8.15-1.135c2.641.067 5.088 1.083 7.289 3.025l-1.18 1.177c-1.836-1.275-4.206-2.007-7.089-2.173.212-.706.539-1.41.98-2.029zm16.747 41.49c.126-1.074.712-1.504 1.973-1.504.448 0 1 .551 1 1 0 .686-.35.945-2.299.991-.198-.184-.422-.347-.674-.487zm1.973 8.496c-2.9 0-6-1.313-6-5 0-.334.097-2 2-2 1.826 0 1.992 1.537 2 2h2c0-.332-.058-.699-.156-1.07 1.609-.173 3.156-.779 3.156-2.93 0-1.542-1.458-3-3-3-1.746 0-2.964.702-3.567 1.956-.242-.473-.433-1.11-.433-1.956 0-1.062.342-1.749.851-2.375 1.163.86 2.595 1.375 4.149 1.375 1.618 0 3.105-.557 4.292-1.482 1.628 1.537 2.708 4.046 2.708 6.482 0 4.411-3.589 8-8 8zm11.001-18c-.996-.002-2.537-.211-3.142-.6.092-.452.141-.921.141-1.4 0-.091-.013-2.261-1.105-4.447l-1.789.895c.874 1.748.894 3.537.894 3.552 0 2.757-2.243 5-5 5s-5-2.243-5-4.998c0-.018.02-1.806.895-3.555l-1.789-.895c-1.093 2.187-1.106 4.357-1.106 4.448 0 .479.049.948.141 1.4-.605.388-2.146.598-3.141.6-2.804 0-5-2.636-5-6 0-4.011.874-8.219 1.755-11.063.497.038.931.063 1.245.063 3.848 0 8-2.676 8-7 0-1.327-.449-2.451-1.089-3.388 1.694-1.065 3.404-1.612 5.089-1.612 8.447 0 15 12.364 15 23 0 3.364-2.196 6-4.999 6z"/><path d="m32 16v2c4.951 0 11 8.768 11 19h2c0-11.827-6.988-21-13-21z"/></symbol><symbol id="add" viewBox="0 0 42 42"><title>add</title><path d="M37.059,16H26V4.941C26,2.224,23.718,0,21,0s-5,2.224-5,4.941V16H4.941C2.224,16,0,18.282,0,21s2.224,5,4.941,5H16v11.059 C16,39.776,18.282,42,21,42s5-2.224,5-4.941V26h11.059C39.776,26,42,23.718,42,21S39.776,16,37.059,16z"/></symbol><symbol id="delete" viewBox="0 0 512 512"><title>delete</title><g> <g> <g> <polygon points="353.574,176.526 313.496,175.056 304.807,412.34 344.885,413.804 "/> <rect x="235.948" y="175.791" width="40.104" height="237.285"/> <polygon points="207.186,412.334 198.497,175.049 158.419,176.52 167.109,413.804 "/> <path d="M17.379,76.867v40.104h41.789L92.32,493.706C93.229,504.059,101.899,512,112.292,512h286.74 c10.394,0,19.07-7.947,19.972-18.301l33.153-376.728h42.464V76.867H17.379z M380.665,471.896H130.654L99.426,116.971h312.474 L380.665,471.896z"/> </g> </g> </g><g> <g> <path d="M321.504,0H190.496c-18.428,0-33.42,14.992-33.42,33.42v63.499h40.104V40.104h117.64v56.815h40.104V33.42 C354.924,14.992,339.932,0,321.504,0z"/> </g> </g></symbol><symbol id="clock-circular-outline" viewBox="0 0 97.16 97.16"><title>clock-circular-outline</title><path d="M48.58,0C21.793,0,0,21.793,0,48.58s21.793,48.58,48.58,48.58s48.58-21.793,48.58-48.58S75.367,0,48.58,0z M48.58,86.823 c-21.087,0-38.244-17.155-38.244-38.243S27.493,10.337,48.58,10.337S86.824,27.492,86.824,48.58S69.667,86.823,48.58,86.823z"/><path d="M73.898,47.08H52.066V20.83c0-2.209-1.791-4-4-4c-2.209,0-4,1.791-4,4v30.25c0,2.209,1.791,4,4,4h25.832 c2.209,0,4-1.791,4-4S76.107,47.08,73.898,47.08z"/></symbol><symbol id="contract" viewBox="0 0 512 512"><title>contract</title><g> <g> <path d="M498.791,161.127c-17.545-17.546-46.094-17.545-63.645,0.004c-5.398,5.403-39.863,39.896-45.128,45.166V87.426 c0-12.02-4.681-23.32-13.181-31.819L334.412,13.18C325.913,4.68,314.612,0,302.592,0H45.018c-24.813,0-45,20.187-45,45v422 c0,24.813,20.187,45,45,45h300c24.813,0,45-20.187,45-45V333.631L498.79,224.767C516.377,207.181,516.381,178.715,498.791,161.127 z M300.019,30c2.834,0,8.295-0.491,13.18,4.393l42.426,42.427c4.76,4.761,4.394,9.978,4.394,13.18h-60V30z M360.018,467 c0,8.271-6.728,15-15,15h-300c-8.271,0-15-6.729-15-15V45c0-8.271,6.729-15,15-15h225v75c0,8.284,6.716,15,15,15h75v116.323 c0,0-44.254,44.292-44.256,44.293l-21.203,21.204c-1.646,1.646-2.888,3.654-3.624,5.863l-21.214,63.64 c-1.797,5.39-0.394,11.333,3.624,15.35c4.023,4.023,9.968,5.419,15.35,3.624l63.64-21.213c2.209-0.736,4.217-1.977,5.863-3.624 l1.82-1.82V467z M326.378,312.427l21.213,21.213l-8.103,8.103l-31.819,10.606l10.606-31.82L326.378,312.427z M368.8,312.422 l-21.213-21.213c11.296-11.305,61.465-61.517,72.105-72.166l21.213,21.213L368.8,312.422z M477.573,203.558l-15.463,15.476 l-21.213-21.213l15.468-15.481c5.852-5.849,15.366-5.848,21.214,0C483.426,188.19,483.457,197.673,477.573,203.558z"/> </g> </g><g> <g> <path d="M285.018,150h-210c-8.284,0-15,6.716-15,15s6.716,15,15,15h210c8.284,0,15-6.716,15-15S293.302,150,285.018,150z"/> </g> </g><g> <g> <path d="M225.018,210h-150c-8.284,0-15,6.716-15,15s6.716,15,15,15h150c8.284,0,15-6.716,15-15S233.302,210,225.018,210z"/> </g> </g><g> <g> <path d="M225.018,270h-150c-8.284,0-15,6.716-15,15s6.716,15,15,15h150c8.284,0,15-6.716,15-15S233.302,270,225.018,270z"/> </g> </g><g> <g> <path d="M225.018,330h-150c-8.284,0-15,6.716-15,15s6.716,15,15,15h150c8.284,0,15-6.716,15-15S233.302,330,225.018,330z"/> </g> </g><g> <g> <path d="M285.018,422h-90c-8.284,0-15,6.716-15,15s6.716,15,15,15h90c8.284,0,15-6.716,15-15S293.302,422,285.018,422z"/> </g> </g></symbol><symbol id="exclamation-mark" viewBox="0 0 286.054 286.054"><title>exclamation-mark</title><path d="M143.027,0C64.04,0,0,64.04,0,143.027c0,78.996,64.04,143.027,143.027,143.027 c78.996,0,143.027-64.022,143.027-143.027C286.054,64.04,222.022,0,143.027,0z M143.027,259.236 c-64.183,0-116.209-52.026-116.209-116.209S78.844,26.818,143.027,26.818s116.209,52.026,116.209,116.209 S207.21,259.236,143.027,259.236z M143.036,62.726c-10.244,0-17.995,5.346-17.995,13.981v79.201c0,8.644,7.75,13.972,17.995,13.972 c9.994,0,17.995-5.551,17.995-13.972V76.707C161.03,68.277,153.03,62.726,143.036,62.726z M143.036,187.723 c-9.842,0-17.852,8.01-17.852,17.86c0,9.833,8.01,17.843,17.852,17.843s17.843-8.01,17.843-17.843 C160.878,195.732,152.878,187.723,143.036,187.723z" data-original="#E2574C" class="active-path" data-old_color="#E2574C"/></symbol><symbol id="upload" viewBox="0 0 486.3 486.3"><title>upload</title><path d="M395.5,135.8c-5.2-30.9-20.5-59.1-43.9-80.5c-26-23.8-59.8-36.9-95-36.9c-27.2,0-53.7,7.8-76.4,22.5 c-18.9,12.2-34.6,28.7-45.7,48.1c-4.8-0.9-9.8-1.4-14.8-1.4c-42.5,0-77.1,34.6-77.1,77.1c0,5.5,0.6,10.8,1.6,16 C16.7,200.7,0,232.9,0,267.2c0,27.7,10.3,54.6,29.1,75.9c19.3,21.8,44.8,34.7,72,36.2c0.3,0,0.5,0,0.8,0h86 c7.5,0,13.5-6,13.5-13.5s-6-13.5-13.5-13.5h-85.6C61.4,349.8,27,310.9,27,267.1c0-28.3,15.2-54.7,39.7-69 c5.7-3.3,8.1-10.2,5.9-16.4c-2-5.4-3-11.1-3-17.2c0-27.6,22.5-50.1,50.1-50.1c5.9,0,11.7,1,17.1,3c6.6,2.4,13.9-0.6,16.9-6.9 c18.7-39.7,59.1-65.3,103-65.3c59,0,107.7,44.2,113.3,102.8c0.6,6.1,5.2,11,11.2,12c44.5,7.6,78.1,48.7,78.1,95.6 c0,49.7-39.1,92.9-87.3,96.6h-73.7c-7.5,0-13.5,6-13.5,13.5s6,13.5,13.5,13.5h74.2c0.3,0,0.6,0,1,0c30.5-2.2,59-16.2,80.2-39.6 c21.1-23.2,32.6-53,32.6-84C486.2,199.5,447.9,149.6,395.5,135.8z"/><path d="M324.2,280c5.3-5.3,5.3-13.8,0-19.1l-71.5-71.5c-2.5-2.5-6-4-9.5-4s-7,1.4-9.5,4l-71.5,71.5c-5.3,5.3-5.3,13.8,0,19.1 c2.6,2.6,6.1,4,9.5,4s6.9-1.3,9.5-4l48.5-48.5v222.9c0,7.5,6,13.5,13.5,13.5s13.5-6,13.5-13.5V231.5l48.5,48.5 C310.4,285.3,318.9,285.3,324.2,280z"/></symbol><symbol id="search" viewBox="0 0 56.966 56.966"><title>search</title><path d="M55.146,51.887L41.588,37.786c3.486-4.144,5.396-9.358,5.396-14.786c0-12.682-10.318-23-23-23s-23,10.318-23,23 s10.318,23,23,23c4.761,0,9.298-1.436,13.177-4.162l13.661,14.208c0.571,0.593,1.339,0.92,2.162,0.92 c0.779,0,1.518-0.297,2.079-0.837C56.255,54.982,56.293,53.08,55.146,51.887z M23.984,6c9.374,0,17,7.626,17,17s-7.626,17-17,17 s-17-7.626-17-17S14.61,6,23.984,6z"/></symbol><symbol id="close" viewBox="0 0 47.971 47.971"><title>close</title><path d="M28.228,23.986L47.092,5.122c1.172-1.171,1.172-3.071,0-4.242c-1.172-1.172-3.07-1.172-4.242,0L23.986,19.744L5.121,0.88 c-1.172-1.172-3.07-1.172-4.242,0c-1.172,1.171-1.172,3.071,0,4.242l18.865,18.864L0.879,42.85c-1.172,1.171-1.172,3.071,0,4.242 C1.465,47.677,2.233,47.97,3,47.97s1.535-0.293,2.121-0.879l18.865-18.864L42.85,47.091c0.586,0.586,1.354,0.879,2.121,0.879 s1.535-0.293,2.121-0.879c1.172-1.171,1.172-3.071,0-4.242L28.228,23.986z"/></symbol><symbol id="check-mark" viewBox="0 0 512 512"><title>check-mark</title><path d="m369.164062 174.769531c7.8125 7.8125 7.8125 20.476563 0 28.285157l-134.171874 134.175781c-7.8125 7.808593-20.472657 7.808593-28.285157 0l-63.871093-63.875c-7.8125-7.808594-7.8125-20.472657 0-28.28125 7.808593-7.8125 20.472656-7.8125 28.28125 0l49.730468 49.730469 120.03125-120.035157c7.8125-7.808593 20.476563-7.808593 28.285156 0zm142.835938 81.230469c0 141.503906-114.515625 256-256 256-141.503906 0-256-114.515625-256-256 0-141.503906 114.515625-256 256-256 141.503906 0 256 114.515625 256 256zm-40 0c0-119.394531-96.621094-216-216-216-119.394531 0-216 96.621094-216 216 0 119.394531 96.621094 216 216 216 119.394531 0 216-96.621094 216-216zm0 0"/></symbol><symbol id="folder" viewBox="0 0 60 60"><title>folder</title><path d="M14,23.5c-0.254,0-0.479,0.172-0.545,0.417L2,52.5v1c0,0.734-0.047,1,0.565,1h44.759c1.156,0,2.174-0.779,2.45-1.813 L60,24.5c0,0,0-0.625,0-1H14z"/><path d="M12.731,21.5H53h1v-6.268c0-1.507-1.226-2.732-2.732-2.732H26.515l-5-7H2.732C1.226,5.5,0,6.726,0,8.232v41.796 l10.282-26.717C10.557,22.279,11.575,21.5,12.731,21.5z"/></symbol><symbol id="angle-arrow-down" viewBox="0 0 284.929 284.929"><title>angle-arrow-down</title><path d="M282.082,76.511l-14.274-14.273c-1.902-1.906-4.093-2.856-6.57-2.856c-2.471,0-4.661,0.95-6.563,2.856L142.466,174.441 L30.262,62.241c-1.903-1.906-4.093-2.856-6.567-2.856c-2.475,0-4.665,0.95-6.567,2.856L2.856,76.515C0.95,78.417,0,80.607,0,83.082 c0,2.473,0.953,4.663,2.856,6.565l133.043,133.046c1.902,1.903,4.093,2.854,6.567,2.854s4.661-0.951,6.562-2.854L282.082,89.647 c1.902-1.903,2.847-4.093,2.847-6.565C284.929,80.607,283.984,78.417,282.082,76.511z"/></symbol><symbol id="sort-down" viewBox="0 0 292.362 292.362"><title>sort-down</title><path d="M286.935,69.377c-3.614-3.617-7.898-5.424-12.848-5.424H18.274c-4.952,0-9.233,1.807-12.85,5.424 C1.807,72.998,0,77.279,0,82.228c0,4.948,1.807,9.229,5.424,12.847l127.907,127.907c3.621,3.617,7.902,5.428,12.85,5.428 s9.233-1.811,12.847-5.428L286.935,95.074c3.613-3.617,5.427-7.898,5.427-12.847C292.362,77.279,290.548,72.998,286.935,69.377z"/></symbol></svg>