<svg id="Layer_35" enable-background="new 0 0 64 64" height="512" viewBox="0 0 64 64" width="512" xmlns="http://www.w3.org/2000/svg"><path d="m34.981 12.45c-.195-5.044-2.964-10.653-3.087-10.898l-.276-.552h-.618c-2.206 0-4 1.794-4 4v.192l.071.179c.007.018.289.729.635 1.752-1.02 1.213-3.427 3.073-5.321 4.4-.916-1.64-3.004-4.523-6.385-4.523-4.323 0-7 4.153-7 8 0 2.047.969 8.853 1.01 9.142l.106.742.742.106c.191.027 3.233.46 5.864.75-.883 2.982-1.722 7.218-1.722 11.26 0 4.486 3.075 8 7 8 .46 0 2.429-.052 3.823-.713.175.327.379.636.602.93-.756.888-1.425 2.034-1.425 3.783 0 1.378.364 2.41.817 3.164-2.034.549-2.817 2.469-2.817 3.836 0 4.187 3.215 7 8 7 5.514 0 10-4.486 10-10 0-2.998-1.301-6.003-3.324-7.92.183-.253.352-.516.5-.793 1.395.661 3.364.713 3.824.713 3.925 0 7-3.514 7-8 0-11.602-6.372-22.278-14.019-24.55zm-4.575-9.36c.68 1.508 2.291 5.409 2.553 8.961-.318-.031-.638-.051-.959-.051-.351 0-.702.025-1.053.062-.274-2.776-1.596-6.343-1.94-7.233.07-.82.638-1.502 1.399-1.739zm-2.032 6.215c.29 1.07.534 2.197.605 3.16-1.148.348-2.288.891-3.412 1.631-.557-.499-1.13-.902-1.638-1.215 1.264-.9 3.105-2.279 4.445-3.576zm-13.352 9.27c-1.32-.377-2.73-.511-3.779-.553-.137-1.243-.239-2.367-.242-2.991 2.426.116 4.417.659 5.948 1.622zm-1.667 1.663-1.638 1.634c-.074-.554-.155-1.182-.237-1.835.572.031 1.218.089 1.875.201zm2.174.647c.007.004.016.006.023.01l.033-.066.976-.976c.192.856.362 2.105.417 3.905-1.301-.144-2.727-.326-3.847-.475zm3.456 3.065c-.059-2.472-.328-4.388-.806-5.716l1.771-1.771c1.314 1.727 1.996 4.154 2.04 7.224-.686.209-1.376.313-1.99.313-.256 0-.607-.019-1.015-.05zm4.973-1.209c-.178-3.205-1.044-5.786-2.587-7.697l.839-.839c1.186.611 3.79 2.243 3.79 4.795 0 1.681-.871 2.917-2.042 3.741zm-3.528-10.592c-1.814-1.479-3.811-2.457-5.912-2.889.45-.161.94-.26 1.482-.26 2.14 0 3.641 1.855 4.43 3.149zm-8.15-1.135c2.641.067 5.088 1.083 7.289 3.025l-1.18 1.177c-1.836-1.275-4.206-2.007-7.089-2.173.212-.706.539-1.41.98-2.029zm16.747 41.49c.126-1.074.712-1.504 1.973-1.504.448 0 1 .551 1 1 0 .686-.35.945-2.299.991-.198-.184-.422-.347-.674-.487zm1.973 8.496c-2.9 0-6-1.313-6-5 0-.334.097-2 2-2 1.826 0 1.992 1.537 2 2h2c0-.332-.058-.699-.156-1.07 1.609-.173 3.156-.779 3.156-2.93 0-1.542-1.458-3-3-3-1.746 0-2.964.702-3.567 1.956-.242-.473-.433-1.11-.433-1.956 0-1.062.342-1.749.851-2.375 1.163.86 2.595 1.375 4.149 1.375 1.618 0 3.105-.557 4.292-1.482 1.628 1.537 2.708 4.046 2.708 6.482 0 4.411-3.589 8-8 8zm11.001-18c-.996-.002-2.537-.211-3.142-.6.092-.452.141-.921.141-1.4 0-.091-.013-2.261-1.105-4.447l-1.789.895c.874 1.748.894 3.537.894 3.552 0 2.757-2.243 5-5 5s-5-2.243-5-4.998c0-.018.02-1.806.895-3.555l-1.789-.895c-1.093 2.187-1.106 4.357-1.106 4.448 0 .479.049.948.141 1.4-.605.388-2.146.598-3.141.6-2.804 0-5-2.636-5-6 0-4.011.874-8.219 1.755-11.063.497.038.931.063 1.245.063 3.848 0 8-2.676 8-7 0-1.327-.449-2.451-1.089-3.388 1.694-1.065 3.404-1.612 5.089-1.612 8.447 0 15 12.364 15 23 0 3.364-2.196 6-4.999 6z"/><path d="m32 16v2c4.951 0 11 8.768 11 19h2c0-11.827-6.988-21-13-21z"/></svg>